<svg xmlns="http://www.w3.org/2000/svg" viewBox="0 0 270 380" role="img" aria-labelledby="title desc">
  <title id="title">Harmony mark</title>
  <desc id="desc">Blue droplet with orange globe icon.</desc>
  <defs>
    <style>
      .a{fill:#1fb7df;stroke:#ff4b14;stroke-width:4}
      .b{fill:#fff;stroke:#ff4b14;stroke-width:7}
      .c{fill:none;stroke:#ff4b14;stroke-width:7;stroke-linecap:round}
    </style>
  </defs>

  <path class="a" d="M136 8c-13 38-33 72-60 105C42 151 24 190 24 235c0 65 44 112 109 133V8h3z"/>
  <path class="a" d="M136 8c13 38 33 72 60 105 34 38 52 77 52 122 0 65-44 112-109 133V8h-3z"/>
  <line class="c" x1="136" y1="8" x2="136" y2="368"/>
  <circle class="b" cx="136" cy="228" r="58"/>
  <ellipse class="c" cx="136" cy="228" rx="39" ry="58"/>
  <ellipse class="c" cx="136" cy="228" rx="58" ry="24"/>
  <line class="c" x1="78" y1="228" x2="194" y2="228"/>
  <line class="c" x1="136" y1="170" x2="136" y2="286"/>
  <line class="c" x1="94" y1="198" x2="178" y2="198"/>
  <line class="c" x1="94" y1="258" x2="178" y2="258"/>
</svg>
