<svg xmlns="http://www.w3.org/2000/svg" viewBox="0 0 1280 380" role="img" aria-labelledby="title desc">
  <title id="title">Harmony Additives Private Limited logo</title>
  <desc id="desc">Blue droplet and Harmony brand text with certification line.</desc>
  <defs>
    <style>
      .a{fill:#1fb7df;stroke:#ff4b14;stroke-width:3}
      .b{fill:#fff;stroke:#ff4b14;stroke-width:6}
      .c{fill:none;stroke:#ff4b14;stroke-width:6;stroke-linecap:round}
      .d{fill:#1fb7df;stroke:#ff4b14;stroke-width:3;font:700 126px "Arial Black",Arial,sans-serif;letter-spacing:2px}
      .e{fill:#d90404;stroke:#fff;stroke-width:2}
      .f{fill:#fff;font:700 63px "Arial Black",Arial,sans-serif;letter-spacing:2px}
      .g{fill:#fff;font:700 60px "Arial Black",Arial,sans-serif}
    </style>
  </defs>

  <path class="a" d="M132 8c-13 38-33 72-60 105C38 151 20 190 20 235c0 65 44 112 109 133V8h3z"/>
  <path class="a" d="M132 8c13 38 33 72 60 105 34 38 52 77 52 122 0 65-44 112-109 133V8h-3z"/>
  <line class="c" x1="132" y1="8" x2="132" y2="368"/>
  <circle class="b" cx="132" cy="228" r="58"/>
  <ellipse class="c" cx="132" cy="228" rx="39" ry="58"/>
  <ellipse class="c" cx="132" cy="228" rx="58" ry="24"/>
  <line class="c" x1="74" y1="228" x2="190" y2="228"/>
  <line class="c" x1="132" y1="170" x2="132" y2="286"/>
  <line class="c" x1="90" y1="198" x2="174" y2="198"/>
  <line class="c" x1="90" y1="258" x2="174" y2="258"/>

  <text class="d" x="286" y="226">HARMONY</text>
  <rect class="e" x="286" y="258" width="966" height="78" rx="24"/>
  <text class="f" x="306" y="315">ADDITIVES PRIVATE LIMITED</text>
  <text class="g" x="286" y="375">ISO 14001 &amp; 9001 Certified Company</text>
</svg>
